# xmcd
#
# Track frame offsets:
#	150
#	20250
#	44830
#
# Disc length: 898 seconds
#
# Revision: 1
# Processed by: cddbd v1.5.1PL0 Copyright (c) Steve Scherf et al.
# Submitted via: CDex 1.50Beta5
#
DISCID=20038003
DTITLE=BAHO - Anytime
DYEAR=1992
DGENRE=Rock
TTITLE0=Anytime
TTITLE1=Stoned Bamboo 〜 アミーゴ
TTITLE2=Pink and Blue
EXTD=
EXTT0=
EXTT1=
EXTT2=
PLAYORDER=
